<?xml version="1.0" encoding="utf-8" ?>
<svg baseProfile="full" height="100%" version="1.1" width="100%" xmlns="http://www.w3.org/2000/svg" xmlns:ev="http://www.w3.org/2001/xml-events" xmlns:xlink="http://www.w3.org/1999/xlink"><defs><style type="text/css"><![CDATA[.star { stroke: white; stroke-width: 0.1 } .o-star { fill: lightblue; } .b-star { fill: blue; } .a-star, .d-star { fill: white; } .f-star { fill: lightyellow; } .g-star { fill: yellow; } .k-star { fill: orange; } .m-star { fill: red; } .lty-star { fill: darkred; } text { font-size: 3px; font-family: sans; fill: white }]]></style></defs><rect fill="black" height="240" width="240" x="-120" y="-120" /><g id="hlines" stroke="lightgray"><line stroke-width="0.25" x1="-120" x2="120" y1="-120" y2="-120" /><line stroke-width="0.25" x1="-120" x2="120" y1="-110" y2="-110" /><line stroke-width="0.25" x1="-120" x2="120" y1="-100" y2="-100" /><line stroke-width="0.25" x1="-120" x2="120" y1="-90" y2="-90" /><line stroke-width="0.25" x1="-120" x2="120" y1="-80" y2="-80" /><line stroke-width="0.25" x1="-120" x2="120" y1="-70" y2="-70" /><line stroke-width="0.25" x1="-120" x2="120" y1="-60" y2="-60" /><line stroke-width="0.25" x1="-120" x2="120" y1="-50" y2="-50" /><line stroke-width="0.25" x1="-120" x2="120" y1="-40" y2="-40" /><line stroke-width="0.25" x1="-120" x2="120" y1="-30" y2="-30" /><line stroke-width="0.25" x1="-120" x2="120" y1="-20" y2="-20" /><line stroke-width="0.25" x1="-120" x2="120" y1="-10" y2="-10" /><line stroke-width="0.25" x1="-120" x2="120" y1="0" y2="0" /><line stroke-width="0.25" x1="-120" x2="120" y1="10" y2="10" /><line stroke-width="0.25" x1="-120" x2="120" y1="20" y2="20" /><line stroke-width="0.25" x1="-120" x2="120" y1="30" y2="30" /><line stroke-width="0.25" x1="-120" x2="120" y1="40" y2="40" /><line stroke-width="0.25" x1="-120" x2="120" y1="50" y2="50" /><line stroke-width="0.25" x1="-120" x2="120" y1="60" y2="60" /><line stroke-width="0.25" x1="-120" x2="120" y1="70" y2="70" /><line stroke-width="0.25" x1="-120" x2="120" y1="80" y2="80" /><line stroke-width="0.25" x1="-120" x2="120" y1="90" y2="90" /><line stroke-width="0.25" x1="-120" x2="120" y1="100" y2="100" /><line stroke-width="0.25" x1="-120" x2="120" y1="110" y2="110" /><line stroke-width="0.25" x1="-120" x2="120" y1="120" y2="120" /></g><g id="vlines" stroke="lightgray"><line stroke-width="0.25" x1="-120" x2="-120" y1="-120" y2="120" /><line stroke-width="0.25" x1="-110" x2="-110" y1="-120" y2="120" /><line stroke-width="0.25" x1="-100" x2="-100" y1="-120" y2="120" /><line stroke-width="0.25" x1="-90" x2="-90" y1="-120" y2="120" /><line stroke-width="0.25" x1="-80" x2="-80" y1="-120" y2="120" /><line stroke-width="0.25" x1="-70" x2="-70" y1="-120" y2="120" /><line stroke-width="0.25" x1="-60" x2="-60" y1="-120" y2="120" /><line stroke-width="0.25" x1="-50" x2="-50" y1="-120" y2="120" /><line stroke-width="0.25" x1="-40" x2="-40" y1="-120" y2="120" /><line stroke-width="0.25" x1="-30" x2="-30" y1="-120" y2="120" /><line stroke-width="0.25" x1="-20" x2="-20" y1="-120" y2="120" /><line stroke-width="0.25" x1="-10" x2="-10" y1="-120" y2="120" /><line stroke-width="0.25" x1="0" x2="0" y1="-120" y2="120" /><line stroke-width="0.25" x1="10" x2="10" y1="-120" y2="120" /><line stroke-width="0.25" x1="20" x2="20" y1="-120" y2="120" /><line stroke-width="0.25" x1="30" x2="30" y1="-120" y2="120" /><line stroke-width="0.25" x1="40" x2="40" y1="-120" y2="120" /><line stroke-width="0.25" x1="50" x2="50" y1="-120" y2="120" /><line stroke-width="0.25" x1="60" x2="60" y1="-120" y2="120" /><line stroke-width="0.25" x1="70" x2="70" y1="-120" y2="120" /><line stroke-width="0.25" x1="80" x2="80" y1="-120" y2="120" /><line stroke-width="0.25" x1="90" x2="90" y1="-120" y2="120" /><line stroke-width="0.25" x1="100" x2="100" y1="-120" y2="120" /><line stroke-width="0.25" x1="110" x2="110" y1="-120" y2="120" /><line stroke-width="0.25" x1="120" x2="120" y1="-120" y2="120" /></g><circle class="star g-star" cx="0.0" cy="-0.0" r="2" /><text x="3.0" y="3.0">Sol (+0)</text><circle class="star m-star" cx="29.42" cy="30.529000000000003" r="2" /><text x="32.42" y="33.529">Proxima Centauri (+0)</text><circle class="star g-star" cx="31.255000000000003" cy="30.464000000000002" r="2" /><text x="34.255" y="33.464">Alpha Centauri (+0)</text><circle class="star m-star" cx="49.71" cy="-29.878999999999998" r="2" /><text x="52.71" y="-26.878999999999998">Barnard's Star (+1)</text><circle class="star m-star" cx="-18.98" cy="39.011" r="2" /><text x="-15.98" y="42.011">Wolf 359 (+6)</text><circle class="star m-star" cx="-34.347" cy="3.0759999999999996" r="2" /><text x="-31.347" y="6.076">Lalande 21185 (+8)</text><circle class="star a-star" cx="-57.580999999999996" cy="62.248000000000005" r="2" /><text x="-54.580999999999996" y="65.248">Sirius  (-1)</text><circle class="star m-star" cx="-21.491" cy="-1.6969999999999998" r="2" /><text x="-18.491" y="1.3030000000000002">UV/BL Ceti (-8)</text><circle class="star m-star" cx="93.31899999999999" cy="-18.659" r="2" /><text x="96.31899999999999" y="-15.658999999999999">Ross 154 (-2)</text><circle class="star m-star" cx="-33.712" cy="-92.67899999999999" r="2" /><text x="-30.712000000000003" y="-89.67899999999999">Ross 248 (-3)</text><circle class="star k-star" cx="-67.393" cy="19.127000000000002" r="2" /><text x="-64.393" y="22.127000000000002">Epsilon Eridani (-8)</text><circle class="star m-star" cx="43.385" cy="-3.8729999999999998" r="2" /><text x="46.385" y="-0.8729999999999998">Lacaille 9352 (-10)</text><circle class="star m-star" cx="0.14200000000000002" cy="55.426" r="2" /><text x="3.142" y="58.426">Ross 128 (+9)</text><circle class="star m-star" cx="41.818999999999996" cy="-44.949000000000005" r="2" /><text x="44.818999999999996" y="-41.949000000000005">EZ Aquarii (-9)</text><circle class="star k-star" cx="15.159" cy="-112.405" r="2" /><text x="18.159" y="-109.405">61 Cygni (-1)</text><circle class="star f-star" cx="-92.705" cy="61.832" r="2" /><text x="-89.705" y="64.832">Procyon (+3)</text><circle class="star m-star" cx="1.302" cy="-104.782" r="2" /><text x="4.302" y="-101.782">Struve 2398 (+5)</text><circle class="star m-star" cx="-49.633" cy="-98.78399999999999" r="2" /><text x="-46.633" y="-95.78399999999999">Groombridge 34 (-4)</text><circle class="star k-star" cx="72.264" cy="31.884" r="2" /><text x="75.264" y="34.884">Epsilon Indi (-9)</text><circle class="star m-star" cx="-95.457" cy="29.209" r="2" /><text x="-92.457" y="32.209">DX Cancri (+6)</text><circle class="star g-star" cx="-33.686" cy="-4.0760000000000005" r="2" /><text x="-30.686" y="-1.0760000000000005">Tau Ceti (-11)</text><circle class="star m-star" cx="-22.505000000000003" cy="68.73" r="2" /><text x="-19.505000000000003" y="71.73">Gliese 1061 (-10)</text><circle class="star m-star" cx="-20.400999999999996" cy="-11.919" r="2" /><text x="-17.400999999999996" y="-8.919">YZ Ceti (-12)</text><circle class="star m-star" cx="-101.811" cy="64.473" r="2" /><text x="-98.811" y="67.473">Luyten's Star (+2)</text><circle class="star lty-star" cx="16.983999999999998" cy="62.561" r="2" /><text x="19.983999999999998" y="65.561">Luhman 16 (+1)</text><circle class="star lty-star" cx="-39.134" cy="55.868" r="2" /><text x="-36.134" y="58.868">WISE 0855–0714 (+3)</text></svg>